General
Complete name                            : [Ani] Firebreather [ATG 2010] 720p.mp4
Format                                   : MPEG-4
Format profile                           : Base Media
Codec ID                                 : isom
File size                                : 658 MiB
Duration                                 : 1h 6mn
Overall bit rate mode                    : Variable
Overall bit rate                         : 1 389 Kbps

Video
ID                                       : 1
Format                                   : AVC
Format/Info                              : Advanced Video Codec
Format profile                           : High 10@L4.0
Format settings, CABAC                   : Yes
Format settings, ReFrames                : 4 frames
Codec ID                                 : avc1
Codec ID/Info                            : Advanced Video Coding
Duration                                 : 1h 6mn
Bit rate                                 : 1 200 Kbps
Maximum bit rate                         : 8 932 Kbps
Width                                    : 1 280 pixels
Height                                   : 720 pixels
Display aspect ratio                     : 16:9
Frame rate mode                          : Constant
Frame rate                               : 25.000 fps
Color space                              : YUV
Chroma subsampling                       : 4:2:0
Bit depth                                : 10 bits
Scan type                                : Progressive
Bits/(Pixel*Frame)                       : 0.052
Stream size                              : 565 MiB (86%)
Writing library                          : x264 core 120 r2120 0c7dab9

Audio
ID                                       : 2
Format                                   : AAC
Format/Info                              : Advanced Audio Codec
Format profile                           : LC
Codec ID                                 : 40
Duration                                 : 1h 6mn
Bit rate mode                            : Variable
Bit rate                                 : 192 Kbps
Maximum bit rate                         : 265 Kbps
Channel(s)                               : 6 channels
Channel positions                        : Front: L C R, Side: L R, LFE
Sampling rate                            : 48.0 KHz
Compression mode                         : Lossy
Stream size                              : 90.0 MiB (14%)
